HIERARCHY
ROOT Hips
{
  OFFSET 267.745 86.9975 -272.335
  CHANNELS 6 Xposition Yposition Zposition Zrotation Xrotation Yrotation
  JOINT LeftUpLeg
  {
    OFFSET 8.64259 1.95398 -2.38835
    CHANNELS 3 Zrotation Xrotation Yrotation
    JOINT LeftLeg
    {
      OFFSET 43.7702 0 0
      CHANNELS 3 Zrotation Xrotation Yrotation
      JOINT LeftFoot
      {
        OFFSET 40.6238 0 0
        CHANNELS 3 Zrotation Xrotation Yrotation
        JOINT LeftToeBase
        {
          OFFSET 12.7242 0 0
          CHANNELS 3 Zrotation Xrotation Yrotation
          End Site
          {
            OFFSET 0 0 0
          }
        }
      }
    }
  }
  JOINT RightUpLeg
  {
    OFFSET -8.2249 1.95398 -2.59336
    CHANNELS 3 Zrotation Xrotation Yrotation
    JOINT RightLeg
    {
      OFFSET 43.5653 0 0
      CHANNELS 3 Zrotation Xrotation Yrotation
      JOINT RightFoot
      {
        OFFSET 40.6238 0 0
        CHANNELS 3 Zrotation Xrotation Yrotation
        JOINT RightToeBase
        {
          OFFSET 12.7242 0 0
          CHANNELS 3 Zrotation Xrotation Yrotation
          End Site
          {
            OFFSET 0 0 0
          }
        }
      }
    }
  }
  JOINT Spine
  {
    OFFSET 0.165834 0.87714 6.61349
    CHANNELS 3 Zrotation Xrotation Yrotation
    JOINT Spine1
    {
      OFFSET 7.38963 1.71661e-005 0
      CHANNELS 3 Zrotation Xrotation Yrotation
      JOINT Spine2
      {
        OFFSET 11.9445 1.14441e-005 0
        CHANNELS 3 Zrotation Xrotation Yrotation
        JOINT Spine3
        {
          OFFSET 14.7254 4.19617e-005 0
          CHANNELS 3 Zrotation Xrotation Yrotation
          JOINT Spine4
          {
            OFFSET 10.9679 0 0
            CHANNELS 3 Zrotation Xrotation Yrotation
            JOINT RightShoulder
            {
              OFFSET 2.46616 -1.6653 3.69651
              CHANNELS 3 Zrotation Xrotation Yrotation
              JOINT RightArm
              {
                OFFSET 13.0012 0 0
                CHANNELS 3 Zrotation Xrotation Yrotation
                JOINT RightForeArm
                {
                  OFFSET 28.7848 1.52588e-005 0
                  CHANNELS 3 Zrotation Xrotation Yrotation
                  JOINT RightHand
                  {
                    OFFSET 26.5688 1.52588e-005 0
                    CHANNELS 3 Zrotation Xrotation Yrotation
                    End Site
                    {
                      OFFSET 0 0 0
                    }
                  }
                }
              }
            }
            JOINT LeftShoulder
            {
              OFFSET 2.38034 -1.29275 -3.7523
              CHANNELS 3 Zrotation Xrotation Yrotation
              JOINT LeftArm
              {
                OFFSET 16.3182 6.10352e-005 0
                CHANNELS 3 Zrotation Xrotation Yrotation
                JOINT LeftForeArm
                {
                  OFFSET 27.0901 0 0
                  CHANNELS 3 Zrotation Xrotation Yrotation
                  JOINT LeftHand
                  {
                    OFFSET 24.5451 1.52588e-005 0
                    CHANNELS 3 Zrotation Xrotation Yrotation
                    End Site
                    {
                      OFFSET 0 0 0
                    }
                  }
                }
              }
            }
            JOINT Neck
            {
              OFFSET 5.0226 -0.0266342 0
              CHANNELS 3 Zrotation Xrotation Yrotation
              JOINT Head
              {
                OFFSET 6.69364 2.86102e-005 0
                CHANNELS 3 Zrotation Xrotation Yrotation
                End Site
                {
                  OFFSET 0 0 0
                }
              }
            }
          }
        }
      }
    }
  }
}
MOTION
Frames:	16
Frame Time:	0.0416667
-185.19 97.0972 -193.778 94.8377 -42.1338 93.0839 -174.044 -1.42006 89.5423 -9.53174 -0.95666 0.974845 64.5309 2.59472 -2.66681 27.056 0.015712 1.34642 174.279 2.68805 87.9696 -17.3975 2.0474 0.462148 66.002 1.39783 8.00297 26.4424 0.496809 0.767417 -0.435598 7.33628 -90.0574 12.2016 -0.892852 -0.0150538 0.530959 -0.892679 0.0242642 -22.0065 -0.847057 -0.282715 -1.99383 -0.847083 -0.282732 100.933 -49.7414 -84.097 30.7739 -8.10402 -6.22736 1.91076 -10.172 -14.9803 -14.0625 -0.669702 0.35517 -81.1096 -49.1558 91.8531 -35.7306 1.26299 -20.348 -1.45181 42.9305 -1.13015 2.29788 -0.10518 -4.72915 9.86937 -9.40386 6.35944 -19.7098 -9.04701 -11.8576 
-185.157 97.1001 -193.821 94.3646 -42.0718 92.7181 -174.285 -1.08737 89.3347 -9.5028 -0.87781 1.06737 64.6189 2.78693 -2.10745 26.6709 0.115612 0.901092 174.364 2.85795 87.9174 -17.1243 2.72327 0.330989 66.5934 1.52298 9.27554 25.0246 0.965242 -0.229365 -0.445717 7.30456 -90.0545 12.2651 -0.911587 -0.00643521 0.59445 -0.910994 0.0336899 -21.9431 -0.867503 -0.280131 -1.93045 -0.867511 -0.280124 100.98 -49.8552 -84.0212 30.6832 -7.49266 -7.03166 2.17488 -10.8665 -13.4818 -14.6359 -0.378722 -2.24193 -81.2551 -49.7967 91.6707 -34.8456 1.35733 -20.1109 -1.23563 42.6511 -1.80346 3.7902 -0.115887 -4.96527 9.76338 -9.34512 6.8729 -19.822 -8.96551 -12.7455 
-185.108 97.056 -193.802 94.3034 -42.1639 92.4657 -174.386 -1.06388 89.1232 -9.57013 -0.882403 1.01095 64.5482 2.72121 -1.99749 26.9582 0.0573783 1.10956 174.313 3.16556 87.7006 -17.6655 2.57824 0.285356 66.8457 1.49415 9.25452 25.1202 0.90938 0.0311652 -0.444034 7.30859 -90.0268 12.2573 -0.895147 0.0469032 0.586631 -0.892235 0.0862536 -21.9509 -0.867856 -0.22432 -1.93825 -0.867863 -0.224323 100.874 -50.2473 -84.1763 30.2557 -7.6339 -6.82852 2.21316 -10.34 -14.0859 -14.938 -0.533548 -1.06343 -81.3749 -49.9614 91.4987 -34.6545 1.13036 -19.9725 -1.59659 42.5603 -1.36378 -1.21343 -0.10968 -6.0041 9.59122 -9.31322 6.70031 -19.5528 -8.90352 -12.8407 
-184.951 97.0775 -193.771 94.6108 -42.0287 92.5694 -174.533 -1.68194 88.934 -8.93976 -0.993285 1.1099 64.2915 2.66709 -2.16135 27.0716 0.0320695 1.21207 174.182 2.803 87.5368 -17.6596 2.42238 0.280673 67.1034 1.28655 8.9962 24.7054 1.04072 -0.180781 -0.474533 7.35484 -90.0095 12.165 -0.94766 0.0861662 0.49435 -0.94295 0.12779 -22.0435 -0.929766 -0.202656 -2.03085 -0.929735 -0.202651 100.82 -50.0937 -84.2659 30.4447 -7.78803 -6.78328 2.30507 -9.84264 -14.1898 -14.8516 -0.499499 -1.31142 -81.3052 -49.7861 91.5934 -34.6461 1.61998 -19.8482 -1.60385 42.6491 -1.52356 -0.735612 -0.118378 -6.30023 9.32784 -9.2778 6.54551 -18.7832 -8.90954 -12.8249 
-184.889 97.1102 -193.786 94.3085 -42.1005 92.5197 -174.391 -1.52294 89.0765 -8.86977 -1.11191 1.03646 64.3858 2.78731 -2.08356 26.9227 0.0932636 0.869058 174.277 2.78363 87.6546 -17.1497 2.70638 0.260973 66.6916 1.4765 9.5496 25.1551 0.958083 -0.430273 -0.45633 7.36202 -90.0184 12.1505 -0.915722 0.064782 0.479833 -0.911962 0.105017 -22.0578 -0.892857 -0.213455 -2.04517 -0.892845 -0.213446 100.942 -49.9924 -84.0774 30.6836 -7.64674 -6.93023 2.30014 -9.98942 -14.1529 -15.2432 -0.54319 -1.07258 -81.3556 -49.3705 91.4899 -35.1073 1.33032 -19.907 -1.53845 42.6969 -1.36099 -0.873445 -0.112208 -6.02706 9.82287 -9.50551 6.02317 -19.082 -9.09711 -12.1305 
-184.76 97.0909 -193.795 94.2251 -41.8419 92.5919 -174.414 -1.62624 89.0727 -8.53966 0.295801 1.01783 63.8782 3.18593 -0.392601 28.4542 -0.0159916 0.45076 174.067 2.66677 87.6293 -17.0048 2.62216 0.507624 66.8212 1.21547 9.40519 24.9155 1.04673 -0.654266 -0.475809 7.3837 -90.0356 12.1071 -0.962584 0.0352861 0.436461 -0.960106 0.077612 -22.1014 -0.928697 -0.255666 -2.08877 -0.928697 -0.255682 101.179 -50.1904 -83.7041 30.4308 -7.99321 -7.02639 2.22655 -10.0573 -14.5744 -14.9096 -0.684453 0.147678 -81.3757 -49.107 91.4417 -35.3685 1.27574 -20.0707 -1.71266 42.4549 -1.04597 -1.46803 -0.102258 -5.87308 10.0501 -9.62497 5.9826 -19.5152 -9.15286 -12.2597 
-184.6 97.1093 -193.723 94.5205 -41.8096 92.5454 -174.535 -1.88213 88.7618 -8.71353 0.774704 0.977764 63.7562 3.50147 0.201454 29.4189 -0.176491 0.930029 173.908 2.59157 87.323 -17.557 2.74467 0.437971 67.2715 1.18153 9.71166 24.3985 1.14694 -0.398423 -0.488557 7.45686 -90.0232 11.9609 -0.982202 0.0600885 0.290281 -0.978619 0.103262 -22.2477 -0.954859 -0.237905 -2.23508 -0.954867 -0.237917 101.042 -50.0853 -83.919 30.3925 -8.15913 -6.8149 2.05082 -9.95202 -15.0885 -14.4771 -0.668982 0.183968 -81.2803 -49.6213 91.621 -34.965 1.27549 -20.227 -1.54817 42.2575 -1.32241 -0.676403 -0.108727 -5.78552 10.7938 -9.37874 6.43443 -20.0236 -9.02061 -12.0524 
-184.253 97.0648 -193.621 93.5242 -41.8008 91.8692 -174.549 -1.53131 88.6709 -8.42216 0.824575 0.85325 64.1023 3.65023 0.182013 29.0611 -0.125917 0.818588 174.077 3.10381 87.3201 -17.4856 2.97877 0.305002 67.2091 1.42603 10.0905 24.918 1.09041 -0.997205 -0.480669 7.41923 -90.0288 12.036 -0.969175 0.0483965 0.365443 -0.966092 0.090997 -22.1725 -0.93892 -0.245147 -2.15984 -0.938905 -0.245148 101.01 -49.8739 -83.9736 30.5968 -8.09802 -6.68189 1.98895 -10.1971 -15.077 -14.3462 -0.657315 0.139068 -81.4278 -49.5167 91.3891 -35.1475 1.35954 -20.1809 -1.33253 42.3324 -1.64156 -1.17703 -0.104282 -5.7819 10.595 -9.47282 6.2784 -19.1344 -9.20539 -11.7016 
-183.832 97.0234 -193.529 92.5177 -42.018 90.987 -174.853 -1.34993 88.1656 -7.83566 0.660131 0.811949 64.21 3.87136 0.857904 28.8802 -0.104824 0.801303 173.937 3.74554 86.9748 -17.6502 2.82689 0.37016 67.6607 1.20711 10.1447 24.5974 1.15545 -0.856987 -0.466668 7.36217 -90.0352 12.1501 -0.944187 0.0342845 0.479517 -0.941795 0.0757991 -22.0583 -0.910845 -0.251096 -2.04561 -0.910855 -0.251113 101.037 -49.8998 -83.931 30.3758 -8.01858 -6.41899 2.07338 -9.96922 -14.9735 -14.7689 -0.662409 0.0224635 -81.4747 -50.4236 91.3776 -34.6104 1.0225 -20.0194 -1.36764 42.7872 -1.62315 -1.39723 -0.104616 -6.02509 10.8594 -9.12035 7.16177 -19.2855 -8.97004 -12.3921 
-183.464 96.9632 -193.434 92.4484 -41.9913 91.2354 -174.723 -1.07992 88.3697 -8.7419 0.938795 0.819049 64.5985 4.02909 1.00311 30.072 -0.241646 0.907604 174.148 3.4389 87.2302 -17.474 3.66595 0.186838 67.8344 1.267 11.0758 25.2509 1.04847 -1.35735 -0.466042 7.45276 -90.0601 11.9687 -0.954928 -0.0163167 0.29806 -0.954717 0.0257214 -22.2397 -0.905865 -0.302577 -2.22706 -0.905882 -0.302584 100.836 -49.7994 -84.2477 30.4786 -7.97022 -6.59028 2.25192 -9.76957 -14.7396 -14.8923 -0.71653 0.409171 -81.3285 -50.1281 91.5799 -34.7191 1.4315 -20.0927 -1.33175 42.0679 -1.95343 -1.30276 -0.110505 -6.28146 12.0007 -8.45105 7.17794 -19.6689 -8.38062 -12.041 
-182.919 96.8389 -193.366 91.3591 -41.5624 90.2506 -175.29 -0.509175 87.6424 -8.73477 1.92948 0.844659 64.4147 4.90691 3.17579 32.671 -0.556184 1.44708 173.765 4.11041 86.7376 -17.8679 4.09306 0.438518 68.5285 0.890343 11.2328 25.0708 1.09301 -1.33783 -0.478966 7.48991 -90.0379 11.8946 -0.970197 0.0286463 0.223959 -0.967993 0.0713193 -22.314 -0.933956 -0.264286 -2.3013 -0.933946 -0.264283 100.903 -49.8274 -84.1421 30.463 -7.92367 -6.78294 2.07343 -10.3593 -14.7545 -14.8466 -0.700397 0.295266 -81.4821 -50.2109 91.3518 -34.4998 1.74043 -20.2289 -0.863417 41.0958 -2.78147 -0.642544 -0.112096 -5.80017 13.3137 -8.00102 6.49438 -19.4183 -8.07868 -10.4392 
-182.194 96.7334 -193.2 91.2059 -41.171 90.3751 -175.447 -0.391077 87.4953 -9.55701 3.49133 0.94028 64.5533 5.66771 5.20921 35.3411 -0.844415 1.82544 173.758 4.18802 86.6808 -18.8194 5.26619 0.330278 69.0423 1.41208 12.8669 24.9467 1.24405 -2.27673 -0.463669 7.61511 -90.0601 11.6438 -0.950385 -0.0209406 -0.0267434 -0.950412 0.0209152 -22.5645 -0.900163 -0.305625 -2.55183 -0.900159 -0.305634 100.634 -49.6647 -84.5676 30.6297 -7.76573 -6.57863 1.94743 -10.6824 -15.0377 -15.2069 -0.70969 0.232155 -81.172 -50.2202 91.823 -34.3915 1.89673 -20.2261 0.112852 40.9548 -4.36115 -0.536893 -0.125603 -6.55975 14.4281 -6.71905 5.8194 -19.1004 -6.93447 -8.84819 
-181.198 96.5344 -192.835 90.2143 -40.8272 89.6564 -175.805 -0.0765631 87.1082 -10.0286 4.0131 1.03108 65.1342 6.3185 5.50903 36.271 -0.976784 2.68806 173.727 4.54056 86.3408 -19.7058 7.78943 0.0174621 70.544 2.14634 17.0504 23.6683 1.92916 -4.665 -0.364712 7.68778 -90.0317 11.4986 -0.740407 0.0124346 -0.172163 -0.739118 0.0449948 -22.7089 -0.709901 -0.21068 -2.69627 -0.709903 -0.21068 100.442 -49.7723 -84.8649 30.7434 -7.37281 -6.21958 2.10563 -10.5816 -14.6043 -16.3058 -0.718605 -0.0759916 -81.1844 -49.82 91.7795 -34.2314 2.68349 -19.8643 1.48702 40.225 -6.95512 -1.13385 -0.112062 -6.36215 15.1515 -5.86258 4.6155 -18.4208 -6.07144 -7.12484 
-179.976 96.2625 -192.335 89.2904 -39.7309 89.5699 -175.916 0.734632 87.2677 -11.9237 5.40065 1.29514 66.4348 7.3534 6.39946 37.4349 -1.08968 2.96742 173.245 4.97457 86.5673 -20.9221 7.4205 0.68084 70.8138 0.719162 14.8365 26.8779 1.03039 -4.98517 -0.3005 7.73799 -90.0911 11.3977 -0.640395 -0.116848 -0.273108 -0.644933 -0.0885471 -22.8093 -0.575687 -0.303922 -2.79664 -0.575668 -0.303913 100.31 -49.5945 -85.0776 30.361 -7.90519 -5.16274 1.70633 -11.2979 -14.731 -13.6413 -0.651183 0.370716 -81.1364 -50.3653 91.8855 -33.3917 3.05515 -19.0425 2.61366 38.8474 -9.36607 -1.18768 -0.117562 -7.0083 15.263 -4.83188 4.41009 -17.2391 -5.14129 -6.64514 
-178.483 95.6158 -191.618 88.5907 -38.1662 89.0288 -176.287 1.73821 86.8909 -14.9673 6.173 1.52938 68.7376 8.49149 6.37572 38.8179 -1.23373 3.82619 172.016 6.18576 85.9289 -24.5042 8.13739 1.47158 70.8171 -0.548832 14.3162 34.4076 -1.24393 -4.00957 -0.263003 7.85801 -90.0635 11.1575 -0.55298 -0.0730925 -0.513328 -0.555675 -0.048685 -23.0493 -0.505446 -0.235906 -3.03661 -0.505446 -0.235915 100.47 -49.5878 -84.8262 30.2097 -7.4549 -4.82176 2.14901 -10.829 -13.7616 -14.1416 -0.592257 -0.332971 -81.3878 -49.8366 91.4711 -33.8337 2.49442 -18.6532 3.52287 37.68 -10.4622 -1.08012 -0.139066 -8.20856 17.1989 -4.52592 3.43173 -18.2927 -4.71026 -5.4739 
-176.869 94.2629 -190.765 88.9183 -37.0637 88.0571 -176.193 3.00827 85.9173 -20.9855 7.19144 1.09129 72.3763 10.0781 7.22425 40.3698 -1.35685 3.96226 170.442 9.67793 84.3194 -33.6787 7.27963 1.34668 72.1771 -3.02051 14.4525 42.0431 -3.51972 -6.99983 -0.288255 8.07882 -89.9193 10.7168 -0.53683 0.209172 -0.954096 -0.527098 0.232589 -23.4901 -0.574865 0.0381654 -3.47748 -0.574876 0.0381488 100.289 -49.3881 -85.1176 29.857 -7.00916 -4.43858 2.28023 -10.5973 -13.1973 -13.4183 -0.456512 -1.26952 -81.4818 -50.1593 91.3495 -32.5885 2.54 -18.1946 4.26797 35.8711 -12.3993 -0.279162 -0.136925 -6.992 18.7882 -3.9947 3.20185 -18.1726 -4.23391 -4.95439 
